<mxfile host="app.diagrams.net" agent="Mozilla/5.0 (Windows NT 10.0; Win64; x64) AppleWebKit/537.36 (KHTML, like Gecko) Chrome/129.0.0.0 Safari/537.36" version="24.7.17">
  <diagram name="Page-1" id="jKi57pZRbV4DPoKNgOWp">
    <mxGraphModel dx="2514" dy="2077" grid="1" gridSize="10" guides="1" tooltips="1" connect="1" arrows="1" fold="1" page="1" pageScale="1" pageWidth="827" pageHeight="1169" math="0" shadow="0">
      <root>
        <mxCell id="0" />
        <mxCell id="1" parent="0" />
        <mxCell id="-qFFw0tzv3uYoL9L3_Mh-4" value="" style="edgeStyle=orthogonalEdgeStyle;rounded=0;orthogonalLoop=1;jettySize=auto;html=1;" parent="1" source="-qFFw0tzv3uYoL9L3_Mh-1" target="-qFFw0tzv3uYoL9L3_Mh-3" edge="1">
          <mxGeometry relative="1" as="geometry" />
        </mxCell>
        <mxCell id="-qFFw0tzv3uYoL9L3_Mh-1" value="Run code" style="ellipse;whiteSpace=wrap;html=1;" parent="1" vertex="1">
          <mxGeometry x="366" y="-1100" width="96" height="50" as="geometry" />
        </mxCell>
        <mxCell id="-qFFw0tzv3uYoL9L3_Mh-6" value="" style="edgeStyle=orthogonalEdgeStyle;rounded=0;orthogonalLoop=1;jettySize=auto;html=1;" parent="1" source="-qFFw0tzv3uYoL9L3_Mh-3" edge="1">
          <mxGeometry relative="1" as="geometry">
            <mxPoint x="414" y="-950" as="targetPoint" />
          </mxGeometry>
        </mxCell>
        <mxCell id="-qFFw0tzv3uYoL9L3_Mh-3" value="N =&amp;nbsp;" style="shape=parallelogram;perimeter=parallelogramPerimeter;whiteSpace=wrap;html=1;fixedSize=1;" parent="1" vertex="1">
          <mxGeometry x="356" y="-1020" width="116" height="40" as="geometry" />
        </mxCell>
        <mxCell id="-qFFw0tzv3uYoL9L3_Mh-17" value="" style="edgeStyle=orthogonalEdgeStyle;rounded=0;orthogonalLoop=1;jettySize=auto;html=1;" parent="1" source="-qFFw0tzv3uYoL9L3_Mh-13" edge="1">
          <mxGeometry relative="1" as="geometry">
            <mxPoint x="414" y="-860" as="targetPoint" />
          </mxGeometry>
        </mxCell>
        <mxCell id="-qFFw0tzv3uYoL9L3_Mh-13" value="input initial_lineup_arr" style="rounded=0;whiteSpace=wrap;html=1;" parent="1" vertex="1">
          <mxGeometry x="354" y="-950" width="120" height="60" as="geometry" />
        </mxCell>
        <mxCell id="-qFFw0tzv3uYoL9L3_Mh-26" value="" style="edgeStyle=orthogonalEdgeStyle;rounded=0;orthogonalLoop=1;jettySize=auto;html=1;" parent="1" source="-qFFw0tzv3uYoL9L3_Mh-19" target="-qFFw0tzv3uYoL9L3_Mh-25" edge="1">
          <mxGeometry relative="1" as="geometry" />
        </mxCell>
        <mxCell id="-qFFw0tzv3uYoL9L3_Mh-19" value="&lt;font style=&quot;font-size: 14px;&quot;&gt;changed_lineup_array [i] = true changed_arr [i]&lt;/font&gt;" style="whiteSpace=wrap;html=1;" parent="1" vertex="1">
          <mxGeometry x="-160" y="-712.5" width="240" height="65" as="geometry" />
        </mxCell>
        <mxCell id="-qFFw0tzv3uYoL9L3_Mh-30" value="" style="edgeStyle=orthogonalEdgeStyle;rounded=0;orthogonalLoop=1;jettySize=auto;html=1;" parent="1" source="-qFFw0tzv3uYoL9L3_Mh-21" target="-qFFw0tzv3uYoL9L3_Mh-29" edge="1">
          <mxGeometry relative="1" as="geometry" />
        </mxCell>
        <mxCell id="-qFFw0tzv3uYoL9L3_Mh-21" value="&lt;span style=&quot;font-size: 14px;&quot;&gt;changed_lineup_array [i] != true changed_arr [i]&lt;/span&gt;" style="whiteSpace=wrap;html=1;" parent="1" vertex="1">
          <mxGeometry x="760" y="-712.5" width="240" height="65" as="geometry" />
        </mxCell>
        <mxCell id="-qFFw0tzv3uYoL9L3_Mh-25" value="cout &amp;lt;&amp;lt; &quot;Yes&quot;;" style="ellipse;whiteSpace=wrap;html=1;" parent="1" vertex="1">
          <mxGeometry x="-100" y="-584" width="120" height="80" as="geometry" />
        </mxCell>
        <mxCell id="-qFFw0tzv3uYoL9L3_Mh-29" value="cout &amp;lt;&amp;lt; &quot;No&quot;;&lt;div&gt;output true_changed_arr;&lt;/div&gt;" style="ellipse;whiteSpace=wrap;html=1;" parent="1" vertex="1">
          <mxGeometry x="820" y="-584" width="120" height="80" as="geometry" />
        </mxCell>
        <mxCell id="-qFFw0tzv3uYoL9L3_Mh-34" value="" style="edgeStyle=orthogonalEdgeStyle;rounded=0;orthogonalLoop=1;jettySize=auto;html=1;" parent="1" source="-qFFw0tzv3uYoL9L3_Mh-32" target="-qFFw0tzv3uYoL9L3_Mh-33" edge="1">
          <mxGeometry relative="1" as="geometry" />
        </mxCell>
        <mxCell id="-qFFw0tzv3uYoL9L3_Mh-32" value="&lt;font style=&quot;font-size: 14px;&quot;&gt;reversed_arr ( initial_arr[] , true_changed_arr , N )&lt;/font&gt;" style="ellipse;whiteSpace=wrap;html=1;" parent="1" vertex="1">
          <mxGeometry x="310.75" y="-560" width="206.5" height="90" as="geometry" />
        </mxCell>
        <mxCell id="-qFFw0tzv3uYoL9L3_Mh-43" value="" style="edgeStyle=orthogonalEdgeStyle;rounded=0;orthogonalLoop=1;jettySize=auto;html=1;" parent="1" source="-qFFw0tzv3uYoL9L3_Mh-33" target="-qFFw0tzv3uYoL9L3_Mh-42" edge="1">
          <mxGeometry relative="1" as="geometry" />
        </mxCell>
        <mxCell id="-qFFw0tzv3uYoL9L3_Mh-33" value="int i = 0; i &amp;lt; N; i++" style="rounded=1;whiteSpace=wrap;html=1;" parent="1" vertex="1">
          <mxGeometry x="354" y="-430" width="120" height="60" as="geometry" />
        </mxCell>
        <mxCell id="-qFFw0tzv3uYoL9L3_Mh-42" value="&lt;font style=&quot;font-size: 14px;&quot;&gt;true_changed_arr [ i ] = anitial_arr [ N - 1 - i ]&lt;/font&gt;" style="shape=trapezoid;perimeter=trapezoidPerimeter;whiteSpace=wrap;html=1;fixedSize=1;rounded=1;" parent="1" vertex="1">
          <mxGeometry x="232.00000000000006" y="-330" width="362.34" height="40" as="geometry" />
        </mxCell>
        <mxCell id="-qFFw0tzv3uYoL9L3_Mh-46" value="" style="edgeStyle=orthogonalEdgeStyle;rounded=0;orthogonalLoop=1;jettySize=auto;html=1;" parent="1" source="-qFFw0tzv3uYoL9L3_Mh-44" target="-qFFw0tzv3uYoL9L3_Mh-45" edge="1">
          <mxGeometry relative="1" as="geometry" />
        </mxCell>
        <mxCell id="-qFFw0tzv3uYoL9L3_Mh-44" value="&lt;br&gt;&lt;span style=&quot;color: rgb(0, 0, 0); font-family: Helvetica; font-size: 12px; font-style: normal; font-variant-ligatures: normal; font-variant-caps: normal; font-weight: 400; letter-spacing: normal; orphans: 2; text-align: center; text-indent: 0px; text-transform: none; widows: 2; word-spacing: 0px; -webkit-text-stroke-width: 0px; white-space: normal; background-color: rgb(251, 251, 251); text-decoration-thickness: initial; text-decoration-style: initial; text-decoration-color: initial; display: inline !important; float: none;&quot;&gt;input&amp;nbsp; changed_lineup_arr&lt;/span&gt;&lt;div&gt;&lt;br/&gt;&lt;/div&gt;" style="rounded=0;whiteSpace=wrap;html=1;" parent="1" vertex="1">
          <mxGeometry x="354" y="-860" width="120" height="60" as="geometry" />
        </mxCell>
        <mxCell id="-qFFw0tzv3uYoL9L3_Mh-47" style="edgeStyle=orthogonalEdgeStyle;rounded=0;orthogonalLoop=1;jettySize=auto;html=1;entryX=0;entryY=0.5;entryDx=0;entryDy=0;" parent="1" source="-qFFw0tzv3uYoL9L3_Mh-45" target="-qFFw0tzv3uYoL9L3_Mh-21" edge="1">
          <mxGeometry relative="1" as="geometry" />
        </mxCell>
        <mxCell id="-qFFw0tzv3uYoL9L3_Mh-50" value="FALSE" style="edgeLabel;html=1;align=center;verticalAlign=middle;resizable=0;points=[];" parent="-qFFw0tzv3uYoL9L3_Mh-47" vertex="1" connectable="0">
          <mxGeometry x="0.0951" y="-2" relative="1" as="geometry">
            <mxPoint x="-11" y="-2" as="offset" />
          </mxGeometry>
        </mxCell>
        <mxCell id="-qFFw0tzv3uYoL9L3_Mh-48" style="edgeStyle=orthogonalEdgeStyle;rounded=0;orthogonalLoop=1;jettySize=auto;html=1;" parent="1" source="-qFFw0tzv3uYoL9L3_Mh-45" target="-qFFw0tzv3uYoL9L3_Mh-19" edge="1">
          <mxGeometry relative="1" as="geometry" />
        </mxCell>
        <mxCell id="-qFFw0tzv3uYoL9L3_Mh-49" value="TRUE" style="edgeLabel;html=1;align=center;verticalAlign=middle;resizable=0;points=[];" parent="-qFFw0tzv3uYoL9L3_Mh-48" vertex="1" connectable="0">
          <mxGeometry x="-0.2112" relative="1" as="geometry">
            <mxPoint x="-22" as="offset" />
          </mxGeometry>
        </mxCell>
        <mxCell id="-qFFw0tzv3uYoL9L3_Mh-45" value="&lt;font style=&quot;font-size: 14px;&quot;&gt;changed_lineup_arr&lt;/font&gt;&lt;div&gt;&lt;font size=&quot;3&quot;&gt;==&lt;/font&gt;&lt;/div&gt;&lt;div&gt;&lt;font size=&quot;3&quot;&gt;true_changed_arr&lt;/font&gt;&lt;/div&gt;" style="ellipse;whiteSpace=wrap;html=1;rounded=0;" parent="1" vertex="1">
          <mxGeometry x="331" y="-760" width="166" height="160" as="geometry" />
        </mxCell>
      </root>
    </mxGraphModel>
  </diagram>
</mxfile>
